<svg width="26" height="26" viewBox="0 0 26 26" fill="none" xmlns="http://www.w3.org/2000/svg">
<path d="M12.2156 1.181C11.7786 1.362 11.3868 1.75373 10.6035 2.53712C9.82028 3.32034 9.42838 3.71223 9.24741 4.14914C9.00607 4.73177 9.00607 5.38647 9.24741 5.96909C9.4284 6.40607 9.82011 6.79777 10.6035 7.58119C11.3865 8.36415 11.7787 8.75636 12.2155 8.93731C12.7982 9.17863 13.4529 9.17863 14.0355 8.9373C14.4725 8.7563 14.8641 8.3646 15.6476 7.58119C16.431 6.79777 16.8215 6.40607 17.0026 5.96909C17.2438 5.38647 17.2438 4.73177 17.0026 4.14914C16.8215 3.71217 16.431 3.32053 15.6476 2.53712C14.8641 1.75372 14.4725 1.362 14.0355 1.181C13.4529 0.939666 12.7982 0.939666 12.2156 1.181Z" stroke="#9AF9FE" stroke-width="2" stroke-linecap="round" stroke-linejoin="round"/>
<path d="M4.64918 8.74689C4.21221 8.92789 3.82049 9.3196 3.03709 10.103C2.25389 10.8862 1.86197 11.2782 1.681 11.715C1.43967 12.2977 1.43967 12.9524 1.681 13.5349C1.862 13.972 2.25372 14.3637 3.03712 15.1471C3.82009 15.9301 4.21229 16.3222 4.64914 16.5031C5.23177 16.7445 5.88647 16.7445 6.46909 16.5031C6.90607 16.3222 7.29777 15.9304 8.08119 15.1471C8.8646 14.3637 9.25515 13.972 9.43615 13.5349C9.67748 12.9524 9.67748 12.2977 9.43615 11.715C9.25515 11.2781 8.8646 10.8864 8.08119 10.103C7.29777 9.31959 6.90607 8.92789 6.46909 8.74689C5.88647 8.50555 5.23181 8.50555 4.64918 8.74689Z" stroke="#9AF9FE" stroke-width="2" stroke-linecap="round" stroke-linejoin="round"/>
<path d="M18.17 10.103C17.3868 10.8862 16.9949 11.2781 16.8138 11.715C16.5725 12.2977 16.5725 12.9524 16.8138 13.5349C16.9949 13.972 17.3866 14.3636 18.17 15.1471C18.9529 15.93 19.3452 16.3222 19.782 16.5031C20.3646 16.7445 21.0193 16.7445 21.602 16.5031C22.0389 16.3222 22.4306 15.9304 23.214 15.1471C23.9975 14.3637 24.388 13.972 24.569 13.5349C24.8103 12.9524 24.8103 12.2977 24.569 11.715C24.388 11.2781 23.9975 10.8864 23.214 10.103C22.4306 9.3196 22.0389 8.92789 21.602 8.74689C21.0193 8.50555 20.3647 8.50555 19.782 8.74689C19.3451 8.92789 18.9534 9.3196 18.17 10.103Z" stroke="#9AF9FE" stroke-width="2" stroke-linecap="round" stroke-linejoin="round"/>
<path d="M12.2156 16.3133C11.7786 16.4943 11.3868 16.8861 10.6035 17.6694C9.82029 18.4527 9.42838 18.8446 9.24741 19.2815C9.00607 19.8642 9.00607 20.5188 9.24741 21.1014C9.4284 21.5384 9.82011 21.9301 10.6035 22.7135C11.3865 23.4965 11.7787 23.8887 12.2155 24.0696C12.7982 24.311 13.4529 24.311 14.0355 24.0696C14.4725 23.8887 14.8641 23.4969 15.6476 22.7135C16.431 21.9301 16.8215 21.5384 17.0026 21.1014C17.2438 20.5188 17.2438 19.8642 17.0026 19.2815C16.8215 18.8446 16.431 18.4528 15.6476 17.6694C14.8641 16.8861 14.4725 16.4943 14.0355 16.3133C13.4529 16.072 12.7982 16.072 12.2156 16.3133Z" stroke="#9AF9FE" stroke-width="2" stroke-linecap="round" stroke-linejoin="round"/>
</svg>
