<svg width="23" height="19" viewBox="0 0 23 19" fill="none" xmlns="http://www.w3.org/2000/svg">
<path d="M2.05323 10.7771L10.7533 18.5541C11.053 18.8219 11.2028 18.9559 11.3795 18.9888C11.4591 19.0037 11.5409 19.0037 11.6205 18.9888C11.7972 18.9559 11.947 18.8219 12.2467 18.5541L20.9468 10.7771C23.3946 8.58902 23.6918 4.98826 21.6331 2.46328L21.2461 1.9885C18.7832 -1.03209 13.8395 -0.525514 12.109 2.92479C11.8645 3.41216 11.1355 3.41216 10.891 2.92479C9.16051 -0.525514 4.21686 -1.03209 1.754 1.98852L1.3669 2.46328C-0.691859 4.98826 -0.394604 8.58902 2.05323 10.7771Z" fill="#FFA1EE"/>
</svg>
