<svg width="23" height="13" viewBox="0 0 23 13" fill="none" xmlns="http://www.w3.org/2000/svg">
<path d="M21.9956 0.880356C22.1493 0.372459 21.9956 0 21.2688 0H18.8611C18.2485 0 17.9685 0.322215 17.8148 0.676105C17.8148 0.676105 16.5907 3.64594 14.856 5.57158C14.2961 6.13191 14.0403 6.30886 13.7351 6.30886C13.5825 6.30886 13.3607 6.13191 13.3607 5.62401V0.880356C13.3607 0.270879 13.1839 0 12.6734 0H8.89007C8.50801 0 8.27745 0.281802 8.27745 0.550496C8.27745 1.12721 9.14478 1.26046 9.23371 2.88573V6.41153C9.23371 7.18375 9.09428 7.32465 8.78687 7.32465C7.97114 7.32465 5.98615 4.34389 4.80812 0.931692C4.57866 0.268694 4.34701 0.00109269 3.73219 0.00109269H1.32561C0.637236 0.00109269 0.5 0.323307 0.5 0.677197C0.5 1.31289 1.31573 4.45858 4.2998 8.61897C6.28917 11.4599 9.08989 13 11.6414 13C13.1707 13 13.3596 12.6581 13.3596 12.0683V9.92094C13.3596 9.23719 13.5056 9.09956 13.9898 9.09956C14.3455 9.09956 14.9581 9.27869 16.3865 10.6473C18.0179 12.2704 18.288 12.9989 19.2047 12.9989H21.6113C22.2986 12.9989 22.6422 12.657 22.4446 11.982C22.2283 11.3103 21.4488 10.3327 20.4146 9.17602C19.8525 8.5163 19.0126 7.80633 18.7568 7.45135C18.4 6.9937 18.5032 6.79163 18.7568 6.38531C18.7579 6.38641 21.6904 2.27735 21.9956 0.880356Z" fill="#FFA1EE"/>
</svg>
