<svg width="18" height="12" viewBox="0 0 18 12" fill="none" xmlns="http://www.w3.org/2000/svg">
<path d="M16.9913 0.817849C16.7021 0.585802 16.3301 0.474083 15.9564 0.507031C15.5827 0.539979 15.2376 0.714924 14.9962 0.993754L9.00007 7.97645L3.00387 0.993869C2.76316 0.713945 2.41774 0.538294 2.0436 0.505557C1.66946 0.472819 1.29725 0.585678 1.00884 0.819304C0.720429 1.05293 0.539454 1.38819 0.505725 1.75132C0.471996 2.11446 0.588275 2.47572 0.828982 2.75565L7.91263 11.0059C8.04551 11.1605 8.21179 11.285 8.39971 11.3703C8.58763 11.4557 8.79258 11.5 9.00007 11.5C9.20756 11.5 9.41252 11.4557 9.60043 11.3703C9.78835 11.285 9.95463 11.1605 10.0875 11.0059L17.1712 2.75553C17.4118 2.47532 17.528 2.11388 17.4943 1.75058C17.4606 1.38727 17.2797 1.05181 16.9913 0.817849Z" fill="#FFA1EE"/>
</svg>
