<svg width="23" height="20" viewBox="0 0 23 20" fill="none" xmlns="http://www.w3.org/2000/svg">
<path d="M10.8183 18.5776L2.87469 11.2099C0.63971 9.13697 0.368302 5.72572 2.24804 3.33364L2.60148 2.88386C4.85018 0.022234 9.36394 0.502144 10.9439 3.77085C11.1672 4.23258 11.8328 4.23258 12.0561 3.77085C13.6361 0.502144 18.1499 0.0222338 20.3986 2.88385L20.752 3.33364C22.6317 5.72572 22.3603 9.13697 20.1253 11.2099L12.1818 18.5776L12.181 18.5783C11.9079 18.8315 11.7712 18.9582 11.61 18.9894C11.5374 19.0035 11.4627 19.0035 11.39 18.9894C11.2288 18.9582 11.0922 18.8315 10.819 18.5783L10.819 18.5783L10.8183 18.5776Z" stroke="#FFA1EE" stroke-width="1.6"/>
</svg>
